<?xml version="1.0" encoding="UTF-8" standalone="no"?><!DOCTYPE svg PUBLIC "-//W3C//DTD SVG 1.1//EN" "http://www.w3.org/Graphics/SVG/1.1/DTD/svg11.dtd"><svg width="100%" height="100%" viewBox="0 0 91 74" version="1.1" xmlns="http://www.w3.org/2000/svg" xmlns:xlink="http://www.w3.org/1999/xlink" xml:space="preserve" xmlns:serif="http://www.serif.com/" style="fill-rule:evenodd;clip-rule:evenodd;stroke-linejoin:round;stroke-miterlimit:2;"><g><path d="M78.492,17.769c-0,-1.106 -0.897,-2.002 -2.003,-2.002l-61.981,-0c-1.105,-0 -2,0.895 -2,2c0,7.134 0,31.289 0,38.45c0,1.114 0.903,2.016 2.017,2.016c9.789,0 52.277,0 61.986,0c0.525,0 1.029,-0.208 1.401,-0.58c0.371,-0.371 0.58,-0.875 0.58,-1.4c-0,-7.115 -0,-31.334 -0,-38.484Z" style="fill:#fff;"/><g><path d="M25.914,16.104l-11.067,-0c-0.53,-0 -1.039,0.21 -1.414,0.585c-0.375,0.376 -0.586,0.884 -0.586,1.415c0,3.851 0,11.92 0,11.92l13.067,-0l-0,-13.92Z" style="fill:#fff;"/><rect x="25.914" y="30.024" width="13.067" height="13.92" style="fill:#fff;"/><rect x="38.98" y="43.943" width="13.067" height="13.92" style="fill:#fff;"/><rect x="38.98" y="16.104" width="13.067" height="13.92" style="fill:#fff;"/><rect x="52.047" y="30.024" width="13.067" height="13.92" style="fill:#ebebeb;"/><path d="M78.18,43.943l-13.067,0l0,13.92l11.067,0c0.53,0 1.039,-0.21 1.414,-0.585c0.375,-0.376 0.586,-0.884 0.586,-1.415c-0,-3.851 -0,-11.92 -0,-11.92Z" style="fill:#fff;"/><path d="M78.18,18.104c0,-0.531 -0.211,-1.039 -0.586,-1.415c-0.375,-0.375 -0.884,-0.585 -1.414,-0.585c-3.661,-0 -11.067,-0 -11.067,-0l0,13.92l13.067,-0l-0,-11.92Z" style="fill:#fff;"/><rect x="12.847" y="30.024" width="13.067" height="13.92"/><rect x="25.914" y="16.104" width="13.067" height="13.92"/><rect x="38.98" y="30.024" width="13.067" height="13.92"/><rect x="52.047" y="43.943" width="13.067" height="13.92"/><rect x="25.914" y="43.943" width="13.067" height="13.92"/><rect x="52.047" y="16.104" width="13.067" height="13.92"/><rect x="65.113" y="30.024" width="13.067" height="13.92"/><path d="M25.914,43.943l-13.067,0l0,11.92c0,0.531 0.211,1.039 0.586,1.415c0.375,0.375 0.884,0.585 1.414,0.585c3.661,0 11.067,0 11.067,0l-0,-13.92Z" style="fill:#fff;"/></g></g></svg>