<?xml version="1.0" encoding="UTF-8" standalone="no"?><!DOCTYPE svg PUBLIC "-//W3C//DTD SVG 1.1//EN" "http://www.w3.org/Graphics/SVG/1.1/DTD/svg11.dtd"><svg width="100%" height="100%" viewBox="0 0 74 49" version="1.1" xmlns="http://www.w3.org/2000/svg" xmlns:xlink="http://www.w3.org/1999/xlink" xml:space="preserve" xmlns:serif="http://www.serif.com/" style="fill-rule:evenodd;clip-rule:evenodd;stroke-linejoin:round;stroke-miterlimit:2;"><g><path d="M61.643,10.314c0,-0.18 -0.071,-0.353 -0.199,-0.48c-0.127,-0.128 -0.3,-0.199 -0.48,-0.199c-5.598,-0 -44.058,-0 -49.892,-0c-0.409,-0 -0.741,0.331 -0.741,0.741c0,4.301 0,26.022 0,30.171c0,0.182 0.072,0.356 0.201,0.485c0.129,0.129 0.303,0.201 0.485,0.201c5.63,-0 44.191,-0 49.916,-0c0.392,-0 0.71,-0.318 0.71,-0.71c0,-4.23 0,-26.066 0,-30.209Z" style="fill:#fff;"/><rect x="10.943" y="10.265" width="50.121" height="30.29" style="fill:#ebebeb;fill-opacity:0.53;"/><path d="M61.037,40.599l-50.086,0.034l50.014,-30.428l0.072,30.394Z" style="fill:#fff;"/><path d="M10.943,10.258l50.02,-0.054l-50.011,30.433l-0.009,-30.379Z"/></g></svg>