<?xml version="1.0" encoding="UTF-8" standalone="no"?><!DOCTYPE svg PUBLIC "-//W3C//DTD SVG 1.1//EN" "http://www.w3.org/Graphics/SVG/1.1/DTD/svg11.dtd"><svg width="100%" height="100%" viewBox="0 0 596 596" version="1.1" xmlns="http://www.w3.org/2000/svg" xmlns:xlink="http://www.w3.org/1999/xlink" xml:space="preserve" xmlns:serif="http://www.serif.com/" style="fill-rule:evenodd;clip-rule:evenodd;stroke-linecap:round;stroke-linejoin:round;stroke-miterlimit:1.5;"><g><path d="M297.638,55.387c148.986,0 269.944,120.958 269.944,269.944c0,148.987 -120.958,269.945 -269.944,269.945c-148.986,-0 -269.944,-120.958 -269.944,-269.945c-0,-148.986 120.958,-269.944 269.944,-269.944Zm-0,46.85c123.129,0 223.094,99.965 223.094,223.094c-0,123.129 -99.965,223.094 -223.094,223.094c-123.129,0 -223.094,-99.965 -223.094,-223.094c-0,-123.129 99.965,-223.094 223.094,-223.094Z" style="fill:#fff;"/><circle cx="297.638" cy="325.331" r="28.088" style="fill:#fff;stroke:#fff;stroke-width:0.24px;"/><path d="M290.732,302.364l152.378,-113.216l-128.544,141.889l-23.834,-28.673Z" style="fill:#fff;stroke:#fff;stroke-width:0.24px;"/><path d="M386.964,1.435c-0,-0.381 -0.151,-0.746 -0.42,-1.015c-0.269,-0.269 -0.634,-0.42 -1.015,-0.42c-16.445,0 -169.061,0 -185.52,0c-0.381,-0 -0.746,0.151 -1.016,0.421c-0.269,0.269 -0.42,0.635 -0.42,1.016l-0,46.184c-0,0.381 0.151,0.747 0.421,1.017c0.27,0.27 0.635,0.421 1.017,0.421c16.468,0 169.112,0 185.525,0c0.788,0 1.428,-0.639 1.428,-1.428c-0,-7.154 -0,-39.028 -0,-46.196Z" style="fill:#fff;"/><path d="M567.582,116.641l-57.763,-60.737l-35.109,33.389l57.763,60.738l35.109,-33.39Z" style="fill:#fff;"/><path d="M522.222,136.829l-32.882,-34.576l-20.383,19.384l32.883,34.576l20.382,-19.384Z" style="fill:#fff;"/><rect x="235.445" y="35.445" width="119.264" height="33.221" style="fill:#fff;"/></g></svg>