<?xml version="1.0" encoding="UTF-8" standalone="no"?><!DOCTYPE svg PUBLIC "-//W3C//DTD SVG 1.1//EN" "http://www.w3.org/Graphics/SVG/1.1/DTD/svg11.dtd"><svg width="100%" height="100%" viewBox="0 0 596 596" version="1.1" xmlns="http://www.w3.org/2000/svg" xmlns:xlink="http://www.w3.org/1999/xlink" xml:space="preserve" xmlns:serif="http://www.serif.com/" style="fill-rule:evenodd;clip-rule:evenodd;stroke-linecap:round;stroke-linejoin:round;stroke-miterlimit:1.5;"><g><path d="M297.638,132.198l-0,162.259c-0,-0 -105.839,99.666 -154.777,145.75c-15.594,14.684 -36.228,22.824 -57.647,22.739c-0,0 -0,0 -0,0c-17.511,-0.069 -34.182,-7.514 -45.92,-20.508c-11.738,-12.995 -17.457,-30.334 -15.751,-47.762c0.406,-4.15 0.796,-8.132 1.157,-11.818c1.399,-14.294 8.326,-27.476 19.305,-36.736c59.495,-50.18 253.633,-213.924 253.633,-213.924Z" style="fill:#00ff23;stroke:#2bff0a;stroke-width:0.24px;"/><path d="M297.638,132.198l-0,162.259c-0,-0 105.839,99.666 154.777,145.75c15.593,14.684 36.228,22.824 57.647,22.739c-0,0 -0,0 -0,0c17.511,-0.069 34.182,-7.514 45.92,-20.508c11.738,-12.995 17.456,-30.334 15.75,-47.762c-0.406,-4.15 -0.795,-8.132 -1.156,-11.818c-1.399,-14.294 -8.326,-27.476 -19.305,-36.736c-59.495,-50.18 -253.633,-213.924 -253.633,-213.924Z" style="fill:#2bff0a;stroke:#2bff0a;stroke-width:0.24px;"/></g></svg>